<svg width="100" height="100" viewBox="0 0 100 100" fill="none" xmlns="http://www.w3.org/2000/svg">
<path d="M50 10C27.91 10 10 27.91 10 50C10 72.09 27.91 90 50 90C72.09 90 90 72.09 90 50C90 27.91 72.09 10 50 10ZM70 53.3333H53.3333V70C53.3333 71.8433 51.84 73.3333 50 73.3333C48.16 73.3333 46.6667 71.8433 46.6667 70V53.3333H30C28.16 53.3333 26.6667 51.8433 26.6667 50C26.6667 48.1567 28.16 46.6667 30 46.6667H46.6667V30C46.6667 28.1567 48.16 26.6667 50 26.6667C51.84 26.6667 53.3333 28.1567 53.3333 30V46.6667H70C71.84 46.6667 73.3333 48.1567 73.3333 50C73.3333 51.8433 71.84 53.3333 70 53.3333Z" fill="#585858"/>
</svg>
