<svg width="100" height="100" viewBox="0 0 100 100" fill="none" xmlns="http://www.w3.org/2000/svg">
<path d="M75 10.437C71.261 10.437 67.5225 11.8545 64.6891 14.6891L18.575 60.7992C17.7001 61.6741 17.0593 62.7622 16.7196 63.9567L10.5387 85.5998C10.3863 86.1353 10.3797 86.7019 10.5197 87.2408C10.6596 87.7798 10.941 88.2715 11.3347 88.6653C11.7285 89.059 12.2202 89.3404 12.7592 89.4803C13.2981 89.6203 13.8647 89.6137 14.4002 89.4613L36.0474 83.2804L36.0514 83.2764C37.2379 82.9353 38.3233 82.3025 39.2008 81.425L85.3109 35.3109C90.9799 29.6419 90.9799 20.3581 85.3109 14.6891C82.4775 11.8545 78.7389 10.437 75 10.437ZM75 16.6504C77.1267 16.6504 79.2504 17.4698 80.8878 19.1081H80.8919C84.1729 22.3891 84.1729 27.6109 80.8919 30.8919L76.8514 34.9325L65.0675 23.1486L69.1081 19.1081C70.7455 17.4698 72.8733 16.6504 75 16.6504ZM60.6486 27.5675L72.4324 39.3514L34.7778 77.006C34.6557 77.1273 34.501 77.2203 34.3262 77.2705L18.0908 81.9092L22.7295 65.6698V65.6657C22.7773 65.4977 22.8648 65.3473 22.994 65.2181L60.6486 27.5675Z" fill="#EF534E"/>
</svg>
