2<svg width="100" height="100" viewBox="0 0 100 100" fill="none" xmlns="http://www.w3.org/2000/svg">
<path d="M50 7.27539L8.75 33.0566V44.7559L10.6641 43.5596L11.25 43.1885V88.75H88.75V43.1934L91.25 44.7559V33.0566L50 7.27539ZM50 10.2246L88.75 34.4434V40.249L50 16.0254L11.25 40.249V34.4434L50 10.2246ZM50 18.9746L86.25 41.6309V77.5C85.5615 77.5 85 78.0615 85 78.75C85 79.4385 85.5615 80 86.25 80V86.25H61.25V80C61.9385 80 62.5 79.4385 62.5 78.75C62.5 78.0615 61.9385 77.5 61.25 77.5V55H38.75V77.5C38.0615 77.5 37.5 78.0615 37.5 78.75C37.5 79.4385 38.0615 80 38.75 80V86.25H13.75V80C14.4385 80 15 79.4385 15 78.75C15 78.0615 14.4385 77.5 13.75 77.5V41.626L50 18.9746ZM38.75 31.25V46.25H61.25V31.25H38.75ZM41.25 33.75H48.75V43.75H41.25V33.75ZM51.25 33.75H58.75V43.75H51.25V33.75ZM41.25 57.5H58.75V86.25H41.25V57.5ZM54.375 71.25C53.3398 71.25 52.5 72.0898 52.5 73.125C52.5 74.1602 53.3398 75 54.375 75C55.4102 75 56.25 74.1602 56.25 73.125C56.25 72.0898 55.4102 71.25 54.375 71.25ZM18.75 77.5C18.0615 77.5 17.5 78.0615 17.5 78.75C17.5 79.4385 18.0615 80 18.75 80C19.4385 80 20 79.4385 20 78.75C20 78.0615 19.4385 77.5 18.75 77.5ZM23.75 77.5C23.0615 77.5 22.5 78.0615 22.5 78.75C22.5 79.4385 23.0615 80 23.75 80C24.4385 80 25 79.4385 25 78.75C25 78.0615 24.4385 77.5 23.75 77.5ZM28.75 77.5C28.0615 77.5 27.5 78.0615 27.5 78.75C27.5 79.4385 28.0615 80 28.75 80C29.4385 80 30 79.4385 30 78.75C30 78.0615 29.4385 77.5 28.75 77.5ZM33.75 77.5C33.0615 77.5 32.5 78.0615 32.5 78.75C32.5 79.4385 33.0615 80 33.75 80C34.4385 80 35 79.4385 35 78.75C35 78.0615 34.4385 77.5 33.75 77.5ZM66.25 77.5C65.5615 77.5 65 78.0615 65 78.75C65 79.4385 65.5615 80 66.25 80C66.9385 80 67.5 79.4385 67.5 78.75C67.5 78.0615 66.9385 77.5 66.25 77.5ZM71.25 77.5C70.5615 77.5 70 78.0615 70 78.75C70 79.4385 70.5615 80 71.25 80C71.9385 80 72.5 79.4385 72.5 78.75C72.5 78.0615 71.9385 77.5 71.25 77.5ZM76.25 77.5C75.5615 77.5 75 78.0615 75 78.75C75 79.4385 75.5615 80 76.25 80C76.9385 80 77.5 79.4385 77.5 78.75C77.5 78.0615 76.9385 77.5 76.25 77.5ZM81.25 77.5C80.5615 77.5 80 78.0615 80 78.75C80 79.4385 80.5615 80 81.25 80C81.9385 80 82.5 79.4385 82.5 78.75C82.5 78.0615 81.9385 77.5 81.25 77.5Z" fill="#F5F5F5"/>
</svg>
