<svg width="100" height="100" viewBox="0 0 100 100" fill="none" xmlns="http://www.w3.org/2000/svg">
<path d="M8.08294 88.4615C8.08294 88.4615 8.08294 82.6923 8.08294 81.9261C8.08294 73.4675 20.7632 65.7752 34.6154 63.0709C34.6154 63.0709 38.8522 60.7722 37.6953 56.5355C33.4585 51.1568 32.3017 45.3876 32.3017 45.3876C31.5355 44.997 30.3786 44.2308 29.6124 43.4645C28.4555 41.9171 26.9231 37.3047 27.3137 33.8492C27.6893 30.7692 28.4555 31.9261 28.8462 31.1599C25.7662 24.2338 27.3137 15.3846 30.7692 8.84916C38.0709 -3.84615 53.4555 1.71913e-07 55.7692 4.61238C70.3876 1.92308 69.997 25 67.6983 30.7692C67.6983 30.7692 68.8401 31.1599 68.8401 36.5385C68.4645 42.3077 63.8522 45.7632 63.8522 45.7632C63.8522 47.3107 61.9291 51.9231 58.8492 56.1599C56.1599 61.5385 61.5385 62.6953 61.5385 62.6953C75.3906 65.3846 88.0709 73.0769 88.0709 81.5355C88.0709 82.3017 88.0709 88.0709 88.0709 88.0709C88.0709 93.4645 67.3077 99.2338 48.0769 99.2338C29.2368 99.2338 8.08294 97.3107 8.08294 88.4615Z" fill="#EF534E"/>
</svg>
